<svg width="16" height="16" viewBox="0 0 16 16" fill="none" xmlns="http://www.w3.org/2000/svg">
<path d="M5 0H11V1H13V2H14V3H15V5H16V11H15V13H14V14H13V15H11V16H5V15H3V14H2V13H1V11H0V5H1V3H2V2H3V1H5V0Z" fill="#B85D00"/>
<path d="M5 1H11V2H13V3H14V5H15V11H14V13H13V14H11V15H5V14H3V13H2V11H1V5H2V3H3V2H5V1Z" fill="#F7931A"/>
<path d="M5 2H11V3H12V4H13V5H14V10H13V12H12V13H10V14H5V13H4V12H3V10H2V6H3V4H4V3H5V2Z" fill="#FFB11A"/>
<path d="M5 3H9V4H5V3ZM4 4H5V5H4V4ZM3 6H4V9H3V6Z" fill="#FFD65A"/>
<path d="M6 3H8V5H9V3H10V5H11V6H12V8H11V9H12V11H11V12H10V14H9V12H8V14H6V12H5V5H6V3ZM7 6V8H10V6H7ZM7 9V11H10V9H7Z" fill="#3A2200"/>
<path d="M4 5H6V6H5V12H4V5Z" fill="#3A2200"/>
</svg>
